<svg width="1512" height="320" viewBox="0 0 1512 320" fill="none" xmlns="http://www.w3.org/2000/svg">
<path d="M128.602 0.939998C161.532 0.939998 190.309 7.61499 214.932 20.965C239.852 34.315 258.987 52.8567 272.337 76.59C285.687 100.323 292.362 127.32 292.362 157.58C292.362 187.543 285.687 214.54 272.337 238.57C258.987 262.6 239.852 281.587 214.932 295.53C190.309 309.177 161.532 316 128.602 316H-2.67285V0.939998H128.602ZM119.702 227.89C141.952 227.89 159.604 221.808 172.657 209.645C185.71 197.482 192.237 180.127 192.237 157.58C192.237 135.033 185.71 117.678 172.657 105.515C159.604 93.3517 141.952 87.27 119.702 87.27H96.1172V227.89H119.702ZM380.1 0.939998V178.495C380.1 193.032 383.215 204.602 389.445 213.205C395.972 221.512 406.355 225.665 420.595 225.665C434.835 225.665 445.367 221.512 452.19 213.205C459.013 204.602 462.425 193.032 462.425 178.495V0.939998H560.77V178.495C560.77 208.458 554.54 234.12 542.08 255.48C529.62 276.543 512.562 292.415 490.905 303.095C469.248 313.775 445.07 319.115 418.37 319.115C391.67 319.115 367.937 313.775 347.17 303.095C326.7 292.415 310.68 276.543 299.11 255.48C287.54 234.417 281.755 208.755 281.755 178.495V0.939998H380.1ZM690.154 0.939998C723.084 0.939998 751.861 7.61499 776.484 20.965C801.404 34.315 820.539 52.8567 833.889 76.59C847.239 100.323 853.914 127.32 853.914 157.58C853.914 187.543 847.239 214.54 833.889 238.57C820.539 262.6 801.404 281.587 776.484 295.53C751.861 309.177 723.084 316 690.154 316H558.879V0.939998H690.154ZM681.254 227.89C703.504 227.89 721.156 221.808 734.209 209.645C747.262 197.482 753.789 180.127 753.789 157.58C753.789 135.033 747.262 117.678 734.209 105.515C721.156 93.3517 703.504 87.27 681.254 87.27H657.669V227.89H681.254ZM976.362 0.939998C1009.29 0.939998 1038.07 7.61499 1062.69 20.965C1087.61 34.315 1106.75 52.8567 1120.1 76.59C1133.45 100.323 1140.12 127.32 1140.12 157.58C1140.12 187.543 1133.45 214.54 1120.1 238.57C1106.75 262.6 1087.61 281.587 1062.69 295.53C1038.07 309.177 1009.29 316 976.362 316H845.087V0.939998H976.362ZM967.462 227.89C989.712 227.89 1007.36 221.808 1020.42 209.645C1033.47 197.482 1040 180.127 1040 157.58C1040 135.033 1033.47 117.678 1020.42 105.515C1007.36 93.3517 989.712 87.27 967.462 87.27H943.877V227.89H967.462ZM1230.08 241.24H1325.31V316H1131.29V0.939998H1230.08V241.24ZM1410.69 79.705V118.42H1508.59V192.735H1410.69V237.235H1521.94V316H1311.9V0.939998H1521.94V79.705H1410.69Z" fill="#CF5D3B"/>
</svg>
