<svg width="185" height="214" viewBox="0 0 185 214" fill="none" xmlns="http://www.w3.org/2000/svg">
<path d="M157.85 25.673C175.326 42.0363 184.36 64.9896 182.686 88.8696C182.436 93.4596 181.793 97.983 180.753 102.403C180.26 104.476 179.886 106.59 180.156 108.716C181.993 119.466 186.583 131.766 182.476 142.43C180.82 147.076 175.54 151.116 170.596 149.833C167.78 149.08 165.896 146.626 164.366 144.286C162.736 141.656 161.436 139.68 158.73 142.503C151.966 149.503 144.25 155.393 135.763 160.17C131.84 162.476 127.803 164.54 124.89 168.136C124.133 168.96 123.416 170.093 123.466 171.02V171.09C123.943 174.95 133.156 176.166 133.74 186.61C133.81 188.33 133.676 190.113 133.27 191.78C132.716 193.96 131.583 195.843 130.476 197.823C127.593 203.82 122.066 208.023 116.046 210.606C113.443 211.79 110.77 212.99 107.89 213.243C104.63 213.583 101.266 212.803 97.9963 212.086C96.8863 211.836 95.763 211.54 94.7296 211.066C92.9996 210.306 91.653 208.893 90.0697 207.983C88.683 207.156 87.0163 206.863 85.403 206.66C78.823 206.046 72.5696 203.946 66.6096 201.163C61.353 198.976 56.963 196.106 56.863 190.153C56.6663 187.096 57.3996 183.916 58.273 181.06C59.0763 177.46 61.9296 173.553 59.4563 170.023C57.3563 167.173 54.5663 164.823 51.363 163.343C49.383 162.553 47.433 161.396 45.303 161.14C43.9096 161.013 42.753 161.913 41.9363 162.98C40.0063 165.603 38.043 168.366 35.5263 170.493C31.5463 173.903 26.013 176.546 20.7496 175.626C14.513 174.313 9.13964 169.226 8.34297 162.8C8.04631 160.763 8.09298 158.653 8.27298 156.613C8.73631 151.473 10.0763 146.503 12.0196 141.71C12.9863 139.13 14.8463 136.443 13.8363 133.606C13.513 132.573 12.8763 131.546 12.2996 130.593C8.57632 124.603 5.75298 117.82 3.75298 110.913C-8.78369 69.643 15.6763 24.923 54.4896 8.48631C88.8763 -6.81703 130.853 -1.11369 157.85 25.673ZM175.886 139.503C176.886 137.056 177.486 134.5 177.25 131.866C176.87 127.613 176.316 123.373 175.813 119.13C175.783 118.873 175.58 118.64 175.286 118.056C172.536 123.923 169.44 129.203 165.666 134.34C168.11 136.09 169.43 138.416 170.89 140.636C171.15 141.03 171.41 141.423 171.703 141.786C172.48 142.746 172.903 142.796 173.946 142.096C174.896 141.46 175.466 140.533 175.886 139.503ZM154.03 135.236C185.92 98.8197 175.436 43.0163 132.683 20.4663C100.416 3.02964 57.5796 9.76964 32.5096 36.073C10.2663 58.0363 3.56631 93.2863 18.3596 121.163C20.2063 124.77 21.383 123.693 23.513 120.813C24.873 119.203 26.423 117.473 28.4963 116.916C29.5163 116.633 30.8296 117.106 30.9296 118.246C30.9563 120.27 28.823 121.506 27.753 123.216C25.533 126.476 23.5363 129.94 21.873 133.533C18.8096 140.276 15.6963 147.136 14.8363 154.54C14.483 157.43 14.0463 160.643 15.153 163.416C16.3496 166.363 19.6896 168.77 22.9396 168.596C24.593 168.503 26.2263 167.8 27.693 167.016C30.9396 165.26 34.0963 163.09 36.1596 159.963C40.2896 153.483 43.703 146.536 47.093 139.676C47.7296 138.27 49.373 135.92 50.9996 137.173C53.4263 139.416 50.5396 147.02 49.5796 149.866C48.5396 152.36 49.1896 153.923 51.5496 155.183C54.4863 157 57.7263 158.453 60.4163 160.64C62.1863 162.23 62.8563 164.43 64.3696 166.29C72.2496 175.08 80.4263 183.616 87.9096 192.74C89.393 194.506 90.853 196.35 92.363 198.073C92.9263 198.683 93.4897 199.156 94.0497 199.336C95.333 199.776 96.4597 198.53 97.2797 197.606C99.8263 194.686 102.88 192.246 106.156 190.08C110.793 187.153 116.203 184.936 121.746 184.876C123.336 184.94 125.066 185.97 124.566 187.696C123.706 190.043 120.923 191.276 118.873 192.51C112.913 195.486 107.073 198.703 101.916 202.946C101.106 203.686 99.673 204.77 100.01 205.9C100.913 207.793 107.906 206.826 109.566 206.25C115.32 204.2 121.233 201.063 124.013 195.343C125.396 192.366 127.42 189.113 126.82 185.743C126.15 182.713 123.303 180.846 120.933 179.116C118.286 177.19 116.093 174.603 114.613 171.71C113.883 170.326 113.236 168.903 112.41 167.573C109.78 163.813 107.513 159.813 104.823 156.096C103.476 154.236 101.916 152.476 100.796 150.466C98.8797 146.966 101.33 145.153 104.236 147.596C108.283 151.1 111.463 155.473 114.736 159.66C115.41 160.49 116.243 161.563 117.336 161.583H117.403C118.913 161.493 120.006 159.8 121.59 158.66C122.63 157.853 123.746 157.15 124.886 156.493C127.43 155 130.15 153.98 132.756 152.583C140.833 148.06 147.976 142.28 154.03 135.236ZM84.4863 202.233C84.953 202.403 85.4363 202.536 86.1896 202.776C78.9296 194.073 71.883 185.626 64.753 177.08C64.5496 177.346 64.4096 177.456 64.3763 177.59C63.5163 180.806 62.4996 183.993 61.863 187.256C61.163 190.823 62.2063 192.85 65.443 194.376C69.5363 196.303 73.723 198.043 77.8996 199.79C80.0596 200.69 82.2863 201.43 84.4863 202.233Z" fill="black"/>
<path d="M149.636 82.1496C150.866 82.1696 152.07 83.2863 152.043 84.3863C152.02 85.493 150.923 86.423 149.67 86.3963C148.413 86.3696 147.463 85.4096 147.5 84.203C147.536 83.0463 148.49 82.133 149.636 82.1496Z" fill="black"/>
<path d="M137.64 85.9163C138.973 85.9096 139.63 86.7096 139.606 88.3163C139.586 89.8463 138.643 90.9263 137.323 90.933C136.02 90.943 134.976 89.8896 134.963 88.553C134.953 87.0763 136.123 85.9196 137.64 85.9163Z" fill="black"/>
<path d="M128.55 69.1497C128.54 69.333 128.526 69.5097 128.506 69.683C128.226 72.6297 126.25 74.6597 123.806 74.6364C123.616 74.623 123.423 74.5997 123.23 74.563C122.59 74.443 121.993 74.2563 121.446 73.993C121.31 73.9197 121.17 73.8397 121.033 73.753C120.506 73.4497 119.993 73.033 119.493 72.5197C119.316 72.3197 119.15 72.103 118.996 71.873C118.706 71.4397 118.396 71.013 118.156 70.553C115.693 65.853 113.99 60.8997 113.196 55.643C113.166 55.4397 113.143 55.2397 113.126 55.0597C113.133 54.653 113.163 54.2697 113.213 53.9197L113.23 53.823C113.546 51.493 114.803 49.9497 116.406 49.3597C116.93 49.203 117.436 49.1164 117.923 49.093H117.926C119.203 49.093 120.573 49.623 121.81 50.753C121.81 50.7563 121.82 50.7597 121.823 50.7663C122 50.953 122.163 51.153 122.32 51.3697C126.176 56.6763 127.826 62.753 128.55 69.1497Z" fill="black"/>
<path d="M121.196 115.2C122.236 116.733 122.146 118.356 121.266 119.93C120.536 121.24 119.403 122.163 118.136 122.923C115.95 124.233 113.546 124.903 111.04 125.2C109.543 125.376 108.03 125.413 107.17 125.47C100.866 125.373 95.4096 124.48 90.3996 121.673C88.843 120.8 87.4196 119.756 86.333 118.31C85.4296 117.11 84.7996 115.77 85.043 114.25C85.1763 113.41 85.503 112.51 86.0163 111.846C87.1563 110.383 89.183 110.566 90.0196 112.216C90.663 113.483 91.623 114.28 92.873 114.723C94.4396 115.28 96.033 115.796 97.6563 116.143C102.026 117.07 106.423 117.386 110.853 116.503C112.41 116.193 113.8 115.663 115.043 114.58C117.08 112.803 119.786 113.123 121.196 115.2Z" fill="black"/>
<path d="M92.4063 81.4662C92.3563 82.7196 92.143 83.8529 91.7397 84.7896C90.863 86.8562 89.1897 87.6596 87.4363 87.5062C87.433 87.5096 87.433 87.5062 87.433 87.5062C86.9197 87.3829 86.4097 87.1596 85.9163 86.8196C84.6497 85.9529 83.4297 84.8529 82.5597 83.6029C79.0763 78.6062 76.9463 73.1029 76.373 66.5096C76.453 65.5362 76.633 64.5896 76.9397 63.6896L76.973 63.6029C77.6096 61.8529 79.0097 60.8196 80.573 60.6362C206.509 164.854 206.511 164.854 80.5797 60.6362C81.523 60.6362 82.4063 60.9729 83.183 61.5729C84.243 62.3929 85.293 63.3262 86.0463 64.4196C89.593 69.5662 91.7463 75.2562 92.4063 81.4662Z" fill="black"/>
<path d="M66.0963 98.8596C67.383 98.8563 68.1663 99.6263 68.153 100.886C68.1397 102.226 67.103 103.31 65.803 103.336C64.5363 103.363 63.6297 102.446 63.6597 101.17C63.6897 99.813 64.693 98.8596 66.0963 98.8596Z" fill="black"/>
<path d="M62.0663 110.883C63.3396 110.919 64.4897 111.979 64.4697 113.096C64.4463 114.203 63.303 115.173 62.1063 115.106C60.873 115.039 59.963 114.086 59.9696 112.869C59.9796 111.639 60.8196 110.843 62.0663 110.883Z" fill="black"/>
<path d="M55.5896 103.77C55.6263 105.05 54.6796 106.043 53.3796 106.083C52.0996 106.123 51.0463 105.146 51.033 103.906C51.0196 102.723 51.953 101.77 53.1896 101.7C54.5696 101.623 55.5496 102.47 55.5896 103.77Z" fill="black"/>
</svg>
