<svg style="fill-rule:evenodd;clip-rule:evenodd;stroke-linejoin:round;stroke-miterlimit:2;" xml:space="preserve" xmlns:xlink="http://www.w3.org/1999/xlink" xmlns="http://www.w3.org/2000/svg" version="1.1" viewBox="0 0 1000 300" height="100%" width="100%">
    <g transform="matrix(1,0,0,1,-100,-450)">
        <path style="fill:#CF5D3B;fill-rule:nonzero;" d="M241.37,519.41C256.49,519.41 268.55,520.37 277.56,522.29C286.57,524.21 294.65,527.37 301.81,531.78C313.17,538.87 321.79,548.18 327.69,559.72C333.59,571.26 336.53,584.62 336.53,599.81C336.53,613.48 333.27,626.02 326.76,637.41C320.25,648.81 311.06,658.12 299.2,665.35C291.82,669.84 283.5,673.11 274.24,675.17C264.98,677.23 254.02,678.26 241.36,678.26L217.38,678.26L217.38,519.4L241.36,519.4L241.37,519.41ZM258.51,635.84C269.14,634.75 277.64,630.81 284.01,624.01C290.37,617.21 293.56,608.71 293.56,598.51C293.56,587.52 290.32,578.49 283.85,571.44C277.37,564.39 268.93,560.75 258.51,560.53L258.51,635.84Z"></path>
    </g>
    <g transform="matrix(1,0,0,1,-100,-450)">
        <path style="fill:#CF5D3B;fill-rule:nonzero;" d="M450.47,564.01L450.47,678.27L413.58,678.27L413.58,667.42C410.03,671.62 405.91,674.76 401.21,676.86C396.51,678.96 391.23,680.01 385.37,680.01C374.52,680.01 366.29,676.74 360.68,670.19C355.07,663.64 352.27,654.04 352.27,641.38L352.27,564.01L389.81,564.01L389.81,624.67C389.81,631.11 390.62,635.61 392.25,638.18C393.88,640.75 396.61,642.03 400.44,642.03C404.63,642.03 407.76,640.58 409.83,637.69C411.89,634.8 412.92,630.38 412.92,624.45L412.92,564.01L450.47,564.01Z"></path>
    </g>
    <g transform="matrix(1,0,0,1,-100,-450)">
        <path style="fill:#CF5D3B;fill-rule:nonzero;" d="M548.56,667.85C544.15,671.97 539.48,674.99 534.56,676.91C529.64,678.83 524.21,679.79 518.28,679.79C503.81,679.79 491.5,674.17 481.33,662.92C471.17,651.67 466.08,637.91 466.08,621.63C466.08,604.49 471.38,590.34 481.98,579.2C492.58,568.06 505.87,562.49 521.86,562.49C527.14,562.49 531.9,563.09 536.13,564.28C540.36,565.47 544.29,567.34 547.9,569.87L547.9,519.41L585.44,519.41L585.44,678.27L548.55,678.27L548.55,667.85L548.56,667.85ZM525.45,600.9C519.73,600.9 514.85,602.87 510.8,606.81C506.75,610.75 504.72,615.55 504.72,621.19C504.72,626.83 506.74,631.64 510.8,635.62C514.85,639.6 519.73,641.59 525.45,641.59C531.17,641.59 536.03,639.62 540.04,635.68C544.05,631.74 546.06,626.91 546.06,621.19C546.06,615.47 544.07,610.66 540.09,606.76C536.11,602.85 531.23,600.9 525.44,600.9L525.45,600.9Z"></path>
    </g>
    <g transform="matrix(1,0,0,1,-100,-450)">
        <path style="fill:#CF5D3B;fill-rule:nonzero;" d="M683.66,667.85C679.25,671.97 674.58,674.99 669.66,676.91C664.74,678.83 659.31,679.79 653.38,679.79C638.91,679.79 626.6,674.17 616.43,662.92C606.27,651.67 601.18,637.91 601.18,621.63C601.18,604.49 606.48,590.34 617.08,579.2C627.68,568.06 640.97,562.49 656.96,562.49C662.24,562.49 667,563.09 671.23,564.28C675.46,565.47 679.39,567.34 683,569.87L683,519.41L720.54,519.41L720.54,678.27L683.65,678.27L683.65,667.85L683.66,667.85ZM660.54,600.9C654.82,600.9 649.94,602.87 645.89,606.81C641.84,610.75 639.81,615.55 639.81,621.19C639.81,626.83 641.83,631.64 645.89,635.62C649.94,639.6 654.82,641.59 660.54,641.59C666.26,641.59 671.12,639.62 675.13,635.68C679.14,631.74 681.15,626.91 681.15,621.19C681.15,615.47 679.16,610.66 675.18,606.76C671.2,602.85 666.32,600.9 660.53,600.9L660.54,600.9Z"></path>
    </g>
    <g transform="matrix(1,0,0,1,-100,-450)">
        <rect style="fill:#CF5D3B;fill-rule:nonzero;" height="158.86" width="37.54" y="519.41" x="741.6"></rect>
    </g>
    <g transform="matrix(1,0,0,1,-100,-450)">
        <path style="fill:#CF5D3B;fill-rule:nonzero;" d="M898.62,667.57C891.82,671.91 884.64,675.17 877.08,677.34C869.52,679.51 861.58,680.6 853.26,680.6C835.83,680.6 821.72,675.25 810.94,664.54C800.16,653.83 794.77,639.95 794.77,622.87C794.77,605.79 800.43,591.8 811.75,580.23C823.07,568.66 836.98,562.87 853.47,562.87C865.62,562.87 876.26,566.31 885.37,573.18C894.48,580.05 901.1,589.64 905.23,601.94L844.14,644.91C846.09,645.71 848.12,646.3 850.22,646.7C852.32,647.1 854.67,647.3 857.27,647.3C863.42,647.3 869.77,645.85 876.31,642.96C882.86,640.07 889.31,635.84 895.68,630.26L898.61,667.59L898.62,667.57ZM829.39,622.53L864.11,597.46C862.59,595.94 860.85,594.84 858.9,594.15C856.95,593.46 854.67,593.12 852.06,593.12C845.84,593.12 840.4,595.51 835.73,600.28C831.06,605.06 828.73,610.59 828.73,616.88C828.73,617.75 828.78,618.65 828.89,619.59C829,620.53 829.16,621.51 829.38,622.52L829.39,622.53Z"></path>
    </g>
    <g transform="matrix(1,0,0,1,-100,-450)">
        <circle style="fill:#CF5D3B;" r="25.98" cy="654.61" cx="956.64"></circle>
    </g>
</svg>